<svg xmlns="http://www.w3.org/2000/svg" width="69" height="19" fill="none" xmlns:v="https://vecta.io/nano"><path d="M9.424 1.66v8.701c-.006 1.207-.387 2.194-1.143 2.962-.75.768-1.77 1.198-3.059 1.292l-.448.018c-1.4 0-2.517-.378-3.349-1.134S.172 11.703.16 10.379V1.66h1.67v8.666c0 .926.255 1.646.765 2.162.51.51 1.236.765 2.18.765.955 0 1.685-.255 2.188-.765.51-.51.765-1.228.765-2.153V1.66h1.696z" fill="#3ece93"/><path d="M19.866 9.808c0 1.447-.331 2.613-.993 3.498s-1.559 1.327-2.689 1.327c-1.154 0-2.062-.366-2.725-1.099v4.579h-1.626V4.947h1.485l.079 1.055c.662-.82 1.582-1.23 2.76-1.23 1.143 0 2.045.431 2.707 1.292.668.861 1.002 2.06 1.002 3.595v.149zm-1.626-.185c0-1.072-.229-1.919-.686-2.54s-1.084-.932-1.881-.932c-.984 0-1.723.437-2.215 1.31v4.544a2.39 2.39 0 0 0 2.232 1.301c.779 0 1.397-.308 1.855-.923.463-.621.694-1.541.694-2.76zm3.305 0c0-1.459.346-2.631 1.037-3.516.691-.891 1.597-1.336 2.716-1.336 1.113 0 1.995.381 2.645 1.143V.957h1.626v13.5h-1.494l-.079-1.019c-.65.797-1.556 1.195-2.716 1.195-1.101 0-2.001-.451-2.698-1.354-.691-.902-1.037-2.08-1.037-3.533v-.123zm1.626.185c0 1.078.223 1.922.668 2.531s1.061.914 1.846.914c1.031 0 1.784-.463 2.259-1.389V7.496c-.486-.896-1.233-1.345-2.241-1.345-.797 0-1.418.308-1.863.923S23.17 8.6 23.17 9.808zm14.801 4.649c-.094-.187-.17-.521-.228-1.002-.756.785-1.658 1.178-2.707 1.178-.937 0-1.708-.264-2.312-.791a2.59 2.59 0 0 1-.896-2.021c0-.99.375-1.758 1.125-2.303.756-.551 1.816-.826 3.182-.826h1.582v-.747c0-.568-.17-1.02-.51-1.354-.34-.34-.841-.51-1.503-.51-.58 0-1.066.146-1.459.439s-.589.647-.589 1.063h-1.635c0-.475.167-.932.501-1.371.34-.445.797-.797 1.371-1.055.58-.258 1.216-.387 1.907-.387 1.096 0 1.954.275 2.575.826.621.545.943 1.298.967 2.259v4.377c0 .873.111 1.567.334 2.083v.141h-1.705zm-2.698-1.239c.51 0 .993-.132 1.45-.396s.788-.606.993-1.028V9.843h-1.274c-1.992 0-2.988.583-2.988 1.749 0 .51.17.908.51 1.195s.776.431 1.31.431zm8.824-10.573v2.303h1.775v1.257h-1.775v5.897c0 .381.079.668.237.861.158.188.428.281.809.281.188 0 .445-.035.773-.105v1.318c-.428.117-.844.176-1.248.176-.727 0-1.274-.22-1.643-.659s-.554-1.063-.554-1.872V6.204H40.74V4.947h1.731V2.644h1.626zm7.629 11.988c-1.289 0-2.338-.422-3.146-1.266-.809-.85-1.213-1.983-1.213-3.401v-.299c0-.943.179-1.784.536-2.522.363-.744.867-1.324 1.512-1.74.65-.422 1.354-.633 2.109-.633 1.236 0 2.197.407 2.883 1.222s1.028 1.98 1.028 3.498v.677h-6.442c.023.938.296 1.696.817 2.276.527.574 1.195.861 2.004.861.574 0 1.061-.117 1.459-.351s.747-.545 1.046-.932l.993.774c-.797 1.225-1.992 1.837-3.586 1.837zm-.202-8.525a2.16 2.16 0 0 0-1.652.721c-.445.475-.721 1.143-.826 2.004h4.764v-.123c-.047-.826-.27-1.465-.668-1.916-.398-.457-.937-.686-1.617-.686z" fill="#3d3d3d"/><path d="M62.862 11.934a1.18 1.18 0 0 0-.501-1.02c-.328-.246-.905-.457-1.731-.633-.82-.176-1.474-.387-1.96-.633-.48-.246-.838-.539-1.072-.879-.228-.34-.343-.744-.343-1.213 0-.779.328-1.438.984-1.978.662-.539 1.506-.809 2.531-.809 1.078 0 1.951.278 2.619.835.674.557 1.011 1.269 1.011 2.136h-1.635c0-.445-.19-.829-.571-1.151-.375-.322-.85-.483-1.424-.483-.592 0-1.055.129-1.389.387s-.501.595-.501 1.011c0 .393.155.688.466.888s.87.39 1.679.571c.814.182 1.474.398 1.977.65s.876.557 1.116.914c.246.352.369.782.369 1.292 0 .85-.34 1.532-1.019 2.048-.68.51-1.562.765-2.646.765-.762 0-1.435-.135-2.021-.404s-1.046-.645-1.38-1.125a2.76 2.76 0 0 1-.492-1.573h1.626a1.7 1.7 0 0 0 .65 1.301c.41.316.949.475 1.617.475.615 0 1.107-.123 1.477-.369.375-.252.563-.586.563-1.002z" fill="#eab300"/><path d="M66.641 13.604c0-.281.082-.516.246-.703.17-.187.422-.281.756-.281s.586.094.756.281c.176.188.264.422.264.703 0 .27-.088.495-.264.677-.17.182-.422.272-.756.272s-.586-.091-.756-.272c-.164-.182-.246-.407-.246-.677z" fill="#ff461d"/></svg>